<svg version="1.1" viewBox="0.0 0.0 960.0 720.0" fill="none" stroke="none" stroke-linecap="square" stroke-miterlimit="10" xmlns:xlink="http://www.w3.org/1999/xlink" xmlns="http://www.w3.org/2000/svg"><clipPath id="p.0"><path d="m0 0l960.0 0l0 720.0l-960.0 0l0 -720.0z" clip-rule="nonzero"/></clipPath><g clip-path="url(#p.0)"><path fill="#000000" fill-opacity="0.0" d="m0 0l960.0 0l0 720.0l-960.0 0z" fill-rule="evenodd"/><defs><radialGradient id="p.1" gradientUnits="userSpaceOnUse" gradientTransform="matrix(21.352645983239743 0.0 0.0 21.352645983239743 0.0 0.0)" spreadMethod="pad" cx="22.100707617001426" cy="16.860170006565266" fx="22.100707617001426" fy="16.860170006565266" r="21.352645874023438"><stop offset="0.0" stop-color="#8c8c8c"/><stop offset="1.0" stop-color="#404040"/></radialGradient></defs><path fill="url(#p.1)" d="m778.9775 494.435c-65.52228 141.98492 -224.18286 217.7893 -377.64487 180.43005c-153.46202 -37.359314 -258.22192 -177.29163 -249.35011 -333.06772c8.871796 -155.77611 128.8603 -283.23645 285.59735 -303.38187c156.73706 -20.145416 305.79065 72.73494 354.77826 221.07437l-113.411865 36.4935c-31.403748 -93.68553 -126.39087 -152.23035 -226.18076 -139.40536c-99.78992 12.824982 -176.15253 93.39163 -181.83261 191.84317c-5.6800537 98.45154 60.92926 186.93646 158.60834 210.69794c97.67908 23.761536 198.79498 -23.922424 240.77448 -113.54376z" fill-rule="evenodd"/><path stroke="#000000" stroke-width="1.0" stroke-linejoin="round" stroke-linecap="butt" d="m778.9775 494.435c-65.52228 141.98492 -224.18286 217.7893 -377.64487 180.43005c-153.46202 -37.359314 -258.22192 -177.29163 -249.35011 -333.06772c8.871796 -155.77611 128.8603 -283.23645 285.59735 -303.38187c156.73706 -20.145416 305.79065 72.73494 354.77826 221.07437l-113.411865 36.4935c-31.403748 -93.68553 -126.39087 -152.23035 -226.18076 -139.40536c-99.78992 12.824982 -176.15253 93.39163 -181.83261 191.84317c-5.6800537 98.45154 60.92926 186.93646 158.60834 210.69794c97.67908 23.761536 198.79498 -23.922424 240.77448 -113.54376z" fill-rule="evenodd"/><defs><radialGradient id="p.2" gradientUnits="userSpaceOnUse" gradientTransform="matrix(15.424441848314027 0.0 0.0 -15.424441848314027 0.0 0.0)" spreadMethod="pad" cx="30.387437032424458" cy="-23.17876485585505" fx="30.387437032424458" fy="-23.17876485585505" r="15.424442291259766"><stop offset="0.0" stop-color="#fff6db"/><stop offset="1.0" stop-color="#fad25c"/></radialGradient></defs><path fill="url(#p.2)" d="m627.2394 265.37323c-41.56195 -66.23236 -122.33914 -96.56767 -197.3252 -74.104095c-74.98602 22.463593 -125.68564 92.185425 -123.85068 170.31882c1.8349609 78.13342 55.751923 145.40677 131.71011 164.33765c75.95819 18.930847 155.22253 -15.1501465 193.62958 -83.25415l-59.134094 -33.233826c-23.438354 41.469635 -71.77554 62.210022 -118.08847 50.669037c-46.312897 -11.540985 -79.18323 -52.517914 -80.302704 -100.10727c-1.1194458 -47.589355 29.787964 -90.058105 75.50726 -103.7518c45.7193 -13.69368 94.97858 4.7638245 120.341064 45.09201z" fill-rule="evenodd"/><path stroke="#000000" stroke-width="1.0" stroke-linejoin="round" stroke-linecap="butt" d="m627.2394 265.37323c-41.56195 -66.23236 -122.33914 -96.56767 -197.3252 -74.104095c-74.98602 22.463593 -125.68564 92.185425 -123.85068 170.31882c1.8349609 78.13342 55.751923 145.40677 131.71011 164.33765c75.95819 18.930847 155.22253 -15.1501465 193.62958 -83.25415l-59.134094 -33.233826c-23.438354 41.469635 -71.77554 62.210022 -118.08847 50.669037c-46.312897 -11.540985 -79.18323 -52.517914 -80.302704 -100.10727c-1.1194458 -47.589355 29.787964 -90.058105 75.50726 -103.7518c45.7193 -13.69368 94.97858 4.7638245 120.341064 45.09201z" fill-rule="evenodd"/><defs><radialGradient id="p.3" gradientUnits="userSpaceOnUse" gradientTransform="matrix(14.790503623128568 0.0029592845789328005 0.0029592845789328005 -14.790503623128568 0.0 0.0)" spreadMethod="pad" cx="35.73970988656625" cy="-13.98291778318859" fx="35.73970988656625" fy="-13.98291778318859" r="14.79050350189209"><stop offset="0.0" stop-color="#1077d2"/><stop offset="1.0" stop-color="#093153"/></radialGradient></defs><path fill="url(#p.3)" d="m371.1496 358.76266l314.83466 0.0630188l-32.5791 -31.438385l-228.6683 -0.04574585l0 -220.61598l-53.58725 -51.710922z" fill-rule="evenodd"/><path stroke="#000000" stroke-width="1.0" stroke-linejoin="round" stroke-linecap="butt" d="m371.1496 358.76266l314.83466 0.0630188l-32.5791 -31.438385l-228.6683 -0.04574585l0 -220.61598l-53.58725 -51.710922z" fill-rule="evenodd"/><defs><radialGradient id="p.4" gradientUnits="userSpaceOnUse" gradientTransform="matrix(14.790503623128568 -0.002959284578936423 0.002959284578936423 14.790503623128568 0.0 0.0)" spreadMethod="pad" cx="35.730001781652604" cy="34.538188271021646" fx="35.730001781652604" fy="34.538188271021646" r="14.79050350189209"><stop offset="0.0" stop-color="#1077d2"/><stop offset="1.0" stop-color="#093153"/></radialGradient></defs><path fill="url(#p.4)" d="m371.1496 358.88895l314.83466 -0.06298828l-31.250488 30.15628l-229.99692 0.046020508l0 221.89777l-53.58725 51.710938z" fill-rule="evenodd"/><path stroke="#000000" stroke-width="1.0" stroke-linejoin="round" stroke-linecap="butt" d="m371.1496 358.88895l314.83466 -0.06298828l-31.250488 30.15628l-229.99692 0.046020508l0 221.89777l-53.58725 51.710938z" fill-rule="evenodd"/></g></svg>